<svg width="35" height="36" viewBox="0 0 35 36" fill="none" xmlns="http://www.w3.org/2000/svg">
<path d="M17.5712 28.8344C11.725 28.8344 9.05389 25.7879 9.05389 23.5535C9.05311 23.0205 9.26697 22.5106 9.64518 22.1439C10.0234 21.7772 10.5325 21.5861 11.0528 21.6154C13.5559 21.6154 12.9012 25.456 17.5712 25.456C19.9583 25.456 21.3605 23.9862 21.3605 22.6052C21.3605 21.7754 20.897 20.8271 19.321 20.4478L14.1063 19.1024C9.91721 18.0119 9.18716 15.6292 9.18716 13.4185C9.18716 8.8311 13.2894 7.17157 17.1946 7.17157C20.7927 7.17157 25.0687 9.20449 25.0687 11.9546C25.0687 13.1399 24.1011 13.7741 22.977 13.7741C20.839 13.7741 21.1983 10.704 16.8991 10.704C14.761 10.704 13.637 11.7293 13.637 13.1637C13.637 14.598 15.2999 15.084 16.76 15.41L20.6073 16.299C24.8253 17.271 25.9494 19.8018 25.9494 22.2259C25.9494 25.9539 23.1277 28.8344 17.5654 28.8344H17.5712ZM33.7134 20.9457C33.8804 19.9671 33.9638 18.9756 33.9626 17.9822C33.983 12.9924 31.8397 8.25019 28.1104 5.03377C24.381 1.81736 19.4495 0.457852 14.6452 1.32172C13.1685 0.452028 11.4937 -0.00387073 9.78974 2.47561e-05C6.29221 0.0218802 3.06832 1.93935 1.31957 5.03782C-0.429186 8.13629 -0.440499 11.951 1.28985 15.0603C0.324327 20.4871 2.01563 26.0539 5.81821 29.9649C9.6208 33.8759 15.0535 35.6363 20.3639 34.6783C21.8388 35.5472 23.5115 36.0031 25.2135 36C28.7093 35.9769 31.9312 34.0603 33.6796 30.9637C35.428 27.8671 35.4409 24.0546 33.7134 20.9457Z" fill="#0078D7"/>
</svg>
