<svg width="33" height="26" viewBox="0 0 33 26" fill="none" xmlns="http://www.w3.org/2000/svg">
<path d="M10.5634 25.1884C22.6389 25.1884 29.2437 15.8092 29.2437 7.67556C29.2437 7.40916 29.2437 7.14396 29.2245 6.87996C30.5094 6.00865 31.6185 4.92981 32.5 3.69396C31.3019 4.19196 30.0307 4.5184 28.7291 4.66236C30.0998 3.89322 31.1255 2.68334 31.6155 1.25796C30.3268 1.97497 28.9168 2.48024 27.4466 2.75196C26.4567 1.76518 25.1475 1.11176 23.7216 0.892814C22.2957 0.673868 20.8326 0.901602 19.5586 1.54077C18.2847 2.17995 17.271 3.19493 16.6743 4.42864C16.0777 5.66236 15.9314 7.04604 16.2581 8.36556C13.6479 8.24281 11.0943 7.60685 8.76327 6.49896C6.4322 5.39108 4.37569 3.83603 2.7272 1.93476C1.88764 3.28975 1.6305 4.89379 2.00813 6.42029C2.38577 7.94678 3.36979 9.28095 4.75984 10.1512C3.71498 10.1225 2.69286 9.8582 1.78 9.38076V9.45876C1.78041 10.8798 2.30513 12.257 3.26516 13.3567C4.22519 14.4564 5.56141 15.211 7.0472 15.4924C6.08064 15.7395 5.0665 15.7757 4.08272 15.598C4.50242 16.8209 5.31924 17.8903 6.41899 18.6566C7.51873 19.423 8.84644 19.8481 10.2165 19.8724C8.85525 20.8755 7.29642 21.6171 5.62917 22.0549C3.96191 22.4926 2.21895 22.6179 0.5 22.4236C3.50244 24.2298 6.9959 25.188 10.5634 25.1836" fill="#1DA1F2"/>
</svg>
