<svg width="31" height="32" viewBox="0 0 31 32" fill="none" xmlns="http://www.w3.org/2000/svg">
<path d="M28.7116 0H2.2884C1.68148 0 1.09941 0.248877 0.670256 0.691879C0.241097 1.13488 -1.90735e-06 1.73572 -1.90735e-06 2.36222V29.6378C-1.90735e-06 30.2643 0.241097 30.8651 0.670256 31.3081C1.09941 31.7511 1.68148 32 2.2884 32H28.7116C29.3185 32 29.9006 31.7511 30.3297 31.3081C30.7589 30.8651 31 30.2643 31 29.6378V2.36222C31 1.73572 30.7589 1.13488 30.3297 0.691879C29.9006 0.248877 29.3185 0 28.7116 0ZM9.23972 27.26H4.57896V11.9778H9.23972V27.26ZM6.90611 9.86C6.37743 9.85693 5.86147 9.69226 5.42336 9.38678C4.98525 9.08131 4.64462 8.64871 4.44446 8.14359C4.2443 7.63846 4.19358 7.08346 4.2987 6.54861C4.40383 6.01376 4.66008 5.52304 5.03512 5.13838C5.41015 4.75372 5.88718 4.49236 6.40598 4.38728C6.92478 4.28221 7.4621 4.33812 7.95014 4.54798C8.43819 4.75784 8.85507 5.11222 9.14818 5.56642C9.44129 6.02061 9.5975 6.55426 9.59708 7.1C9.60207 7.46538 9.53574 7.82805 9.40205 8.16641C9.26837 8.50476 9.07006 8.81187 8.81894 9.06942C8.56783 9.32698 8.26905 9.52971 7.94042 9.66553C7.61179 9.80136 7.26003 9.86749 6.90611 9.86ZM26.4189 27.2733H21.7603V18.9244C21.7603 16.4622 20.7463 15.7022 19.4374 15.7022C18.0553 15.7022 16.6991 16.7778 16.6991 18.9867V27.2733H12.0383V11.9889H16.5204V14.1067H16.5807C17.0306 13.1667 18.6065 11.56 21.0111 11.56C23.6117 11.56 26.421 13.1533 26.421 17.82L26.4189 27.2733Z" fill="#0A66C2"/>
</svg>
